HIERARCHY
ROOT Hips
{
	OFFSET -0.001795 -0.223333 0.028219
	CHANNELS 6 Xposition Yposition Zposition Zrotation Yrotation Xrotation 
	JOINT LeftUpLeg
	{
		OFFSET 0.069520 -0.091406 -0.006815
		CHANNELS 3 Zrotation Yrotation Xrotation
		JOINT LeftLeg
		{
			OFFSET 0.034277 -0.375199 -0.004496
			CHANNELS 3 Zrotation Yrotation Xrotation
			JOINT LeftFoot
			{
				OFFSET -0.013596 -0.397961 -0.043693
				CHANNELS 3 Zrotation Yrotation Xrotation
				JOINT LeftToe
				{
					OFFSET 0.026358 -0.055791 0.119288
					CHANNELS 3 Zrotation Yrotation Xrotation
					End Site
					{
						OFFSET 0.000000 0.000000 0.000000
					}
				}
			}
		}
	}
	JOINT RightUpLeg
	{
		OFFSET -0.067670 -0.090522 -0.004320
		CHANNELS 3 Zrotation Yrotation Xrotation
		JOINT RightLeg
		{
			OFFSET -0.038290 -0.382569 -0.008850
			CHANNELS 3 Zrotation Yrotation Xrotation
			JOINT RightFoot
			{
				OFFSET 0.015774 -0.398415 -0.042312
				CHANNELS 3 Zrotation Yrotation Xrotation
				JOINT RightToe
				{
					OFFSET -0.025372 -0.048144 0.123348
					CHANNELS 3 Zrotation Yrotation Xrotation
					End Site
					{
						OFFSET 0.000000 0.000000 0.000000
					}
				}
			}
		}
	}
	JOINT Spine
	{
		OFFSET -0.002533 0.108963 -0.026696
		CHANNELS 3 Zrotation Yrotation Xrotation
		JOINT Spine1
		{
			OFFSET 0.005487 0.135180 0.001092
			CHANNELS 3 Zrotation Yrotation Xrotation
			JOINT Spine2
			{
				OFFSET 0.001457 0.052922 0.025425
				CHANNELS 3 Zrotation Yrotation Xrotation
				JOINT Neck
				{
					OFFSET -0.002778 0.213870 -0.042857
					CHANNELS 3 Zrotation Yrotation Xrotation
					JOINT Head
					{
						OFFSET 0.005152 0.064970 0.051349
						CHANNELS 3 Zrotation Yrotation Xrotation
						End Site
						{
							OFFSET 0.000000 0.000000 0.000000
						}
					}
				}
				JOINT LeftShoulder
				{
					OFFSET 0.078845 0.121749 -0.034090
					CHANNELS 3 Zrotation Yrotation Xrotation
					JOINT LeftArm
					{
						OFFSET 0.090977 0.030469 -0.008868
						CHANNELS 3 Zrotation Yrotation Xrotation
						JOINT LeftForeArm
						{
							OFFSET 0.259612 -0.012772 -0.027456
							CHANNELS 3 Zrotation Yrotation Xrotation
							JOINT LeftHand
							{
								OFFSET 0.249234 0.008986 -0.001171
								CHANNELS 3 Zrotation Yrotation Xrotation
								End Site
								{
									OFFSET 0.000000 0.000000 0.000000
								}
							}
						}
					}
				}
				JOINT RightShoulder
				{
					OFFSET -0.081759 0.118833 -0.038615
					CHANNELS 3 Zrotation Yrotation Xrotation
					JOINT RightArm
					{
						OFFSET -0.096012 0.032551 -0.009143
						CHANNELS 3 Zrotation Yrotation Xrotation
						JOINT RightForeArm
						{
							OFFSET -0.253742 -0.013329 -0.021401
							CHANNELS 3 Zrotation Yrotation Xrotation
							JOINT RightHand
							{
								OFFSET -0.255298 0.007772 -0.005559
								CHANNELS 3 Zrotation Yrotation Xrotation
								End Site
								{
									OFFSET 0.000000 0.000000 0.000000
								}
							}
						}
					}
				}
			}
		}
	}
}
MOTION
Frames: 5
Frame Time: 0.050000
1.502268 0.780899 -1.222319 5.488549 -22.761224 5.884489 1.553436 2.038282 -53.384711 -0.128237 4.472753 63.013945 44.608644 35.516195 76.083985 0.000000 0.000000 0.000000 -38.745254 -1.345116 -41.356914 46.089923 -15.576966 39.829834 -73.152845 -38.908896 105.337537 0.000000 0.000000 0.000000 15.850894 -3.982298 58.053896 -13.710794 3.329362 -26.381593 2.191238 15.253226 29.234534 27.587429 -15.263557 -23.785490 0.000000 0.000000 0.000000 -13.211768 -21.250855 8.056318 -23.300015 -23.384833 -0.319203 124.825974 -34.578756 -59.641866 0.000000 0.000000 0.000000 -9.707341 16.248871 3.702330 -8.664189 28.473349 -2.628128 -60.797341 13.751020 -5.688714 0.000000 0.000000 0.000000 
1.501394 0.781872 -1.223534 5.530217 -21.965141 6.088348 1.604800 1.802504 -53.205885 -0.515627 4.450961 62.154922 45.635030 35.989363 76.025948 0.000000 0.000000 0.000000 -38.840707 -1.578028 -41.148829 45.786050 -15.638934 39.677602 -71.818995 -38.259574 105.648998 0.000000 0.000000 0.000000 15.164534 -3.899975 58.040518 -13.504086 3.262457 -26.639797 2.729890 15.902958 30.123627 27.280536 -15.275502 -23.136132 0.000000 0.000000 0.000000 -13.159870 -20.932963 7.746701 -23.473303 -23.312033 -0.348688 126.147544 -35.418798 -62.610625 0.000000 0.000000 0.000000 -10.468020 16.152670 3.447510 -8.133478 28.403027 -2.479153 -62.838411 14.593270 -6.161195 0.000000 0.000000 0.000000 
1.499397 0.782850 -1.224425 5.615304 -21.275680 5.932603 1.991453 1.680411 -52.278731 -1.277106 4.782210 60.901917 47.349421 36.735564 76.045495 0.000000 0.000000 0.000000 -38.269385 -1.671156 -40.934968 45.054215 -15.643239 40.269602 -76.928950 -47.389639 93.303261 0.000000 0.000000 0.000000 14.310891 -3.683671 58.200773 -13.058961 3.193425 -26.206381 2.823252 16.487780 30.193011 27.244293 -15.642521 -22.004423 0.000000 0.000000 0.000000 -13.733485 -20.548651 7.415864 -23.229318 -22.046389 -0.490723 127.857489 -36.373305 -66.330213 0.000000 0.000000 0.000000 -9.530065 15.984742 3.560721 -7.807870 28.168237 -2.382680 -65.194802 16.233040 -7.280014 0.000000 0.000000 0.000000 
1.495819 0.783636 -1.225030 5.606624 -20.356319 5.766489 2.531546 1.622168 -51.726097 -2.003590 5.040866 60.254054 47.858127 37.086388 75.703285 0.000000 0.000000 0.000000 -37.905272 -1.840701 -40.468147 44.453275 -15.786235 40.884460 -71.646277 -56.248837 73.427901 0.000000 0.000000 0.000000 13.518443 -3.561992 58.204074 -12.663651 3.127015 -26.108684 3.185539 16.797440 30.988302 27.052987 -15.605986 -21.735928 0.000000 0.000000 0.000000 -13.281381 -20.233180 7.137932 -23.061641 -21.678534 -0.576829 128.846759 -35.895593 -67.071444 0.000000 0.000000 0.000000 -9.015520 16.139274 3.667440 -7.280837 27.267337 -2.193861 -67.733451 17.524148 -8.347768 0.000000 0.000000 0.000000 
1.491034 0.785172 -1.225531 5.448875 -19.692721 5.711943 3.309698 1.730625 -50.904849 -2.718367 5.320166 59.211599 48.667599 37.549342 75.382438 0.000000 0.000000 0.000000 -37.106614 -1.863374 -40.192879 43.391753 -15.571166 41.403605 -54.860934 -61.493152 44.142482 0.000000 0.000000 0.000000 12.603036 -3.299550 58.529892 -12.223681 3.026235 -26.053392 3.531914 17.345690 31.051352 27.315308 -16.284882 -20.522157 0.000000 0.000000 0.000000 -13.518311 -20.059842 6.890684 -21.980261 -20.469772 -0.728753 129.770218 -35.389558 -67.878401 0.000000 0.000000 0.000000 -7.391062 15.736981 3.901485 -6.894577 26.746874 -2.098719 -70.589417 19.483161 -10.003376 0.000000 0.000000 0.000000 
